<?xml version="1.0" encoding="UTF-8" standalone="no"?>
<!DOCTYPE svg PUBLIC "-//W3C//DTD SVG 1.1//EN" "http://www.w3.org/Graphics/SVG/1.1/DTD/svg11.dtd">
<svg width="100%" height="100%" viewBox="0 0 1024 1024" version="1.1" xmlns="http://www.w3.org/2000/svg" xmlns:xlink="http://www.w3.org/1999/xlink" xml:space="preserve" xmlns:serif="http://www.serif.com/" style="fill-rule:evenodd;clip-rule:evenodd;">
    <g>
        <g transform="matrix(1.999689,0,0,1.999689,-512.490855,-516.548111)">
            <path d="M646,537C646,537 646.23,531.15 646.5,524C646.77,516.85 646.55,506.5 646,501C645.45,495.5 643.88,486.73 642.5,481.5C641.12,476.27 638.2,467.95 636,463C633.8,458.05 630.65,451.52 629,448.5C627.35,445.48 623.75,440.07 621,436.5C618.25,432.93 612.4,426.4 608,422C603.6,417.6 595.95,411.3 591,408C586.05,404.7 578.62,400.43 574.5,398.5C570.38,396.57 563.4,393.88 559,392.5C554.6,391.12 546.95,389.32 542,388.5C537.05,387.68 531.65,387 527,387" style="fill:none;fill-rule:nonzero;stroke:rgb(177,141,200);stroke-width:1px;"/>
        </g>
        <g transform="matrix(1.999689,0,0,1.999689,-512.490855,-516.548111)">
            <path d="M317,333L317,329C317,326.8 317.9,322.07 319,318.5C320.2,314.61 322.8,309.59 325.5,306C328.11,302.52 332.31,298.53 335.5,296.5C338.52,294.57 343.7,292.1 347,291C352.83,289.06 355.67,289 447.5,289C525.72,289 543.98,289.26 553.5,290.5C559.83,291.32 569.95,293.12 576,294.5C582.05,295.88 592.17,298.8 598.5,301C604.83,303.2 616.08,307.93 623.5,311.5C630.92,315.07 641.73,321.15 647.5,325C653.27,328.85 661.38,334.7 665.5,338C669.62,341.3 677.5,348.5 683,354C688.5,359.5 697.05,369.4 702,376C706.95,382.6 713.48,392.27 716.5,397.5C719.52,402.73 724.25,411.95 727,418C729.75,424.05 733.8,434.4 736,441C738.2,447.6 740.9,457.27 742,462.5C743.1,467.73 744.45,475.6 746,488" style="fill:none;fill-rule:nonzero;stroke:rgb(177,141,200);stroke-width:1px;"/>
        </g>
        <g transform="matrix(1.999689,0,0,1.999689,-512.490855,-516.548111)">
            <path d="M317,333C317,333 317.68,334.57 318.5,336.5C319.32,338.43 321.35,341.12 323,342.5C324.65,343.88 328.48,346.8 331.5,349C334.52,351.2 340.15,355.02 344,357.5C347.85,359.98 353.7,363.35 357,365C360.3,366.65 367.27,369.8 372.5,372C377.73,374.2 388.98,377.8 397.5,380C406.02,382.2 414.35,384.45 416,385C417.77,385.59 441.11,386.2 527,387" style="fill:none;fill-rule:nonzero;stroke:rgb(125,72,162);stroke-width:1px;"/>
        </g>
        <g transform="matrix(1.999689,0,0,1.999689,-512.490855,-516.548111)">
            <path d="M527,387L408,387L407.5,396.5C407.23,401.73 407,437.5 407,546" style="fill:none;fill-rule:nonzero;stroke:rgb(125,72,162);stroke-width:1px;"/>
        </g>
        <g transform="matrix(1.999689,0,0,1.999689,-512.490855,-516.548111)">
            <path d="M380,529C380,529 379.55,510.32 379,487.5C378.45,464.68 377.77,445.1 377.5,444C377.23,442.9 376.1,438.4 375,434C373.9,429.6 371.65,422.62 370,418.5C368.35,414.38 364.75,406.95 362,402C359.25,397.05 354.3,389.4 351,385C347.7,380.6 341.18,372.95 336.5,368C331.82,363.05 325.3,356.98 316,350L317,333" style="fill:none;fill-rule:nonzero;stroke:rgb(125,72,162);stroke-width:1px;"/>
        </g>
        <g transform="matrix(1.999689,0,0,1.999689,-512.490855,-516.548111)">
            <path d="M316,369L327.5,380C335.96,388.09 340.72,393.64 345.5,401C349.07,406.5 353.8,415.05 356,420C358.2,424.95 361.12,433.27 365,448L365.5,527.5C365.77,571.23 366.23,607 366.5,607C366.77,607 375.32,607.45 404,609L384.5,634.5C373.77,648.52 359.82,666.52 353.5,674.5C347.18,682.48 341.55,689 341,689C340.45,689 337.3,685.62 334,681.5C330.7,677.38 321.25,665.23 313,654.5C304.75,643.77 293.5,629.15 288,622C282.5,614.85 278,608.77 278,608.5C278,608.23 286.1,608 296,608C306.67,608 314.41,607.59 315,607C315.66,606.34 316,565.17 316,369" style="fill:none;fill-rule:nonzero;stroke:rgb(254,254,254);stroke-width:1px;"/>
        </g>
        <g transform="matrix(1.999689,0,0,1.999689,-512.490855,-516.548111)">
            <path d="M489,578C489,578 489.23,548.52 489.5,512.5C489.98,449.54 490.08,446.84 492,443C493.1,440.8 495.57,437.65 497.5,436C499.43,434.35 502.35,432.32 504,431.5C505.65,430.68 509.25,429.77 512,429.5C514.75,429.23 518.8,429.45 521,430C523.2,430.55 527.02,432.57 529.5,434.5C532.03,436.46 535.32,440.41 540,449L541,582" style="fill:none;fill-rule:nonzero;stroke:rgb(162,118,188);stroke-width:1px;"/>
        </g>
        <g transform="matrix(1.999689,0,0,1.999689,-512.490855,-516.548111)">
            <path d="M746,488C746,488 746.23,497.9 746.5,510C746.86,525.97 746.59,535.57 745.5,545C744.67,552.15 742.65,563.4 741,570C739.35,576.6 736.42,586.5 734.5,592C732.58,597.5 728.52,607.17 725.5,613.5C722.48,619.83 717.75,628.83 715,633.5C712.25,638.17 706.62,646.5 702.5,652C698.38,657.5 690.73,666.5 685.5,672C680.27,677.5 672.17,685.15 667.5,689C662.83,692.85 654.05,699.38 648,703.5C641.95,707.62 631.38,713.7 624.5,717C617.62,720.3 607.73,724.58 602.5,726.5C597.27,728.42 586.92,731.58 579.5,733.5C572.08,735.42 560.38,737.67 553.5,738.5C542.97,739.76 527.6,739.92 456,739.5C402.89,739.19 370.06,738.62 366,737" style="fill:none;fill-rule:nonzero;stroke:rgb(111,56,151);stroke-width:1px;"/>
        </g>
        <g transform="matrix(1.999689,0,0,1.999689,-512.490855,-516.548111)">
            <path d="M489,645L489,578" style="fill:none;fill-rule:nonzero;stroke:rgb(111,56,151);stroke-width:1px;"/>
        </g>
        <g transform="matrix(1.999689,0,0,1.999689,-512.490855,-516.548111)">
            <path d="M489,578C489,578 495.07,578.9 502.5,580C510.42,581.17 521.17,582 541,582" style="fill:none;fill-rule:nonzero;stroke:rgb(111,56,151);stroke-width:1px;"/>
        </g>
        <g transform="matrix(1.999689,0,0,1.999689,-512.490855,-516.548111)">
            <path d="M541,582L541,612.5C541,632.17 541.36,643 542,643C542.55,643 545.7,642.33 549,641.5C552.3,640.67 555.23,639.77 555.5,639.5C555.77,639.23 556,638.55 556,637" style="fill:none;fill-rule:nonzero;stroke:rgb(111,56,151);stroke-width:1px;"/>
        </g>
        <g transform="matrix(1.999689,0,0,1.999689,-512.490855,-516.548111)">
            <path d="M608,609C608,609 610.7,606.3 614,603C617.3,599.7 622.48,593.17 625.5,588.5C628.52,583.83 632.35,577.3 634,574C635.65,570.7 638.12,564.4 639.5,560C640.88,555.6 642.9,548.62 646,537" style="fill:none;fill-rule:nonzero;stroke:rgb(111,56,151);stroke-width:1px;"/>
        </g>
        <g transform="matrix(1.999689,0,0,1.999689,-512.490855,-516.548111)">
            <path d="M646,537C646,537 647.12,536.1 648.5,535C649.88,533.9 655.05,528.5 660,523C664.95,517.5 672.15,510.52 676,507.5C679.85,504.48 686.38,499.98 690.5,497.5C694.62,495.02 702.05,491.65 707,490C712.69,488.1 718.94,486.82 724,486.5C728.4,486.23 735.15,486.45 746,488" style="fill:none;fill-rule:nonzero;stroke:rgb(111,56,151);stroke-width:1px;"/>
        </g>
        <g transform="matrix(1.999689,0,0,1.999689,-512.490855,-516.548111)">
            <path d="M422,555L422,537C422,523.67 422.39,517.83 423.5,514.5C424.32,512.02 426.35,508.43 428,506.5C429.65,504.57 433.48,501.88 436.5,500.5C440.41,498.72 443.73,498 448,498C451.3,498 455.57,498.68 457.5,499.5C459.43,500.32 462.57,502.12 464.5,503.5C466.65,505.04 468.96,508.12 470.5,511.5C472.93,516.84 473.01,517.8 474,573" style="fill:none;fill-rule:nonzero;stroke:rgb(87,68,135);stroke-width:1px;"/>
        </g>
        <g transform="matrix(1.999689,0,0,1.999689,-512.490855,-516.548111)">
            <path d="M556,581C556,581 556.23,566.15 556.5,548C556.96,517.58 557.16,514.69 559,511C560.1,508.8 562.58,505.65 564.5,504C566.42,502.35 569.58,500.32 571.5,499.5C573.42,498.68 577.92,498 581.5,498C586.3,498 589.44,498.65 593.5,500.5C597.04,502.11 600.07,504.43 602,507C603.65,509.2 605.45,512.35 606,514C606.55,515.65 607.23,528.7 608,569" style="fill:none;fill-rule:nonzero;stroke:rgb(203,170,210);stroke-width:1px;"/>
        </g>
        <g transform="matrix(1.999689,0,0,1.999689,-512.490855,-516.548111)">
            <path d="M380,529C380,529 385.18,532.38 391.5,536.5C397.82,540.62 403.9,544.45 407,546" style="fill:none;fill-rule:nonzero;stroke:rgb(104,55,149);stroke-width:1px;"/>
        </g>
        <g transform="matrix(1.999689,0,0,1.999689,-512.490855,-516.548111)">
            <path d="M407,546L407,593L393.5,593.5C386.07,593.77 380,593.77 380,593.5L380,529" style="fill:none;fill-rule:nonzero;stroke:rgb(104,55,149);stroke-width:1px;"/>
        </g>
        <g transform="matrix(1.999689,0,0,1.999689,-512.490855,-516.548111)">
            <path d="M422,555C422,555 426.95,557.25 433,560C439.05,562.75 450.07,567.02 457.5,569.5C464.93,571.98 471.68,573.77 474,573" style="fill:none;fill-rule:nonzero;stroke:rgb(37,15,89);stroke-width:1px;"/>
        </g>
        <g transform="matrix(1.999689,0,0,1.999689,-512.490855,-516.548111)">
            <path d="M474,573L474,609C474,628.8 474.23,645 474.5,645L489,645" style="fill:none;fill-rule:nonzero;stroke:rgb(37,15,89);stroke-width:1px;"/>
        </g>
        <g transform="matrix(1.999689,0,0,1.999689,-512.490855,-516.548111)">
            <path d="M489,645L489,645.5C489,645.77 473.48,646 420,646" style="fill:none;fill-rule:nonzero;stroke:rgb(37,15,89);stroke-width:1px;"/>
        </g>
        <g transform="matrix(1.999689,0,0,1.999689,-512.490855,-516.548111)">
            <path d="M420,645C420,645 420.45,644.77 421,644.5C421.64,644.18 422,628.17 422,555" style="fill:none;fill-rule:nonzero;stroke:rgb(37,15,89);stroke-width:1px;"/>
        </g>
        <g transform="matrix(1.999689,0,0,1.999689,-512.490855,-516.548111)">
            <path d="M608,569L608,609" style="fill:none;fill-rule:nonzero;stroke:rgb(164,111,173);stroke-width:1px;"/>
        </g>
        <g transform="matrix(1.999689,0,0,1.999689,-512.490855,-516.548111)">
            <path d="M608,609C608,609 607.55,609.67 607,610.5C606.45,611.33 604.2,613.58 602,615.5C599.8,617.42 595.3,620.8 592,623C588.7,625.2 582.4,628.8 578,631C573.6,633.2 567.52,635.9 564.5,637C561.48,638.1 558.77,639 558.5,639C558.23,639 557.55,638.55 556,637" style="fill:none;fill-rule:nonzero;stroke:rgb(164,111,173);stroke-width:1px;"/>
        </g>
        <g transform="matrix(1.999689,0,0,1.999689,-512.490855,-516.548111)">
            <path d="M556,637L556,581" style="fill:none;fill-rule:nonzero;stroke:rgb(164,111,173);stroke-width:1px;"/>
        </g>
        <g transform="matrix(1.999689,0,0,1.999689,-512.490855,-516.548111)">
            <path d="M556,581C556,581 556.45,581.23 557,581.5C557.55,581.77 562.95,581.1 569,580C575.05,578.9 585.4,576.42 592,574.5C598.6,572.58 604.9,570.55 608,569" style="fill:none;fill-rule:nonzero;stroke:rgb(164,111,173);stroke-width:1px;"/>
        </g>
        <g transform="matrix(1.999689,0,0,1.999689,-512.490855,-516.548111)">
            <path d="M420,645L420,646" style="fill:none;fill-rule:nonzero;stroke:rgb(67,37,114);stroke-width:1px;"/>
        </g>
        <g transform="matrix(1.999689,0,0,1.999689,-512.490855,-516.548111)">
            <path d="M420,646L407,646L401.5,655C398.48,659.95 392.85,668.05 389,673C385.15,677.95 377.73,688.52 372.5,696.5C365.49,707.2 362.61,712.57 361.5,717C360.36,721.55 360.24,724.09 361,727.5C361.55,729.98 362.9,733.12 366,737" style="fill:none;fill-rule:nonzero;stroke:rgb(67,37,114);stroke-width:1px;"/>
        </g>
        <g transform="matrix(1.999689,0,0,1.999689,-512.490855,-516.548111)">
            <path d="M366,737C366,737 363.3,735.65 360,734C354.12,731.06 353.96,730.87 352,724.5C350.87,720.83 350,715.17 350,711.5C350,705.88 350.47,704.19 353.5,699C355.43,695.7 367.8,678.6 381,661C394.2,643.4 405.68,629 406.5,629C407.71,629 408,630.56 408,637C408,641.4 408.23,645 408.5,645L420,645" style="fill:none;fill-rule:nonzero;stroke:rgb(67,37,114);stroke-width:1px;"/>
        </g>
    </g>
    <g transform="matrix(1.999689,0,0,1.999689,-512.490855,-516.548111)">
        <path d="M746,488C735.15,486.45 728.4,486.23 724,486.5C718.94,486.82 712.69,488.1 707,490C702.05,491.65 694.62,495.02 690.5,497.5C686.38,499.98 679.85,504.48 676,507.5C672.15,510.52 664.95,517.5 660,523C655.05,528.5 649.88,533.9 648.5,535C647.12,536.1 646,537 646,537C646,537 646.23,531.15 646.5,524C646.77,516.85 646.55,506.5 646,501C645.45,495.5 643.88,486.73 642.5,481.5C641.12,476.27 638.2,467.95 636,463C633.8,458.05 630.65,451.52 629,448.5C627.35,445.48 623.75,440.07 621,436.5C618.25,432.93 612.4,426.4 608,422C603.6,417.6 595.95,411.3 591,408C586.05,404.7 578.62,400.43 574.5,398.5C570.38,396.57 563.4,393.88 559,392.5C554.6,391.12 546.95,389.32 542,388.5C537.05,387.68 531.65,387 527,387C441.11,386.2 417.77,385.59 416,385C414.35,384.45 406.02,382.2 397.5,380C388.98,377.8 377.73,374.2 372.5,372C367.27,369.8 360.3,366.65 357,365C353.7,363.35 347.85,359.98 344,357.5C340.15,355.02 334.52,351.2 331.5,349C328.48,346.8 324.65,343.88 323,342.5C321.35,341.12 319.32,338.43 318.5,336.5C317.68,334.57 317,333 317,333L317,329C317,326.8 317.9,322.07 319,318.5C320.2,314.61 322.8,309.59 325.5,306C328.11,302.52 332.31,298.53 335.5,296.5C338.52,294.57 343.7,292.1 347,291C352.83,289.06 355.67,289 447.5,289C525.72,289 543.98,289.26 553.5,290.5C559.83,291.32 569.95,293.12 576,294.5C582.05,295.88 592.17,298.8 598.5,301C604.83,303.2 616.08,307.93 623.5,311.5C630.92,315.07 641.73,321.15 647.5,325C653.27,328.85 661.38,334.7 665.5,338C669.62,341.3 677.5,348.5 683,354C688.5,359.5 697.05,369.4 702,376C706.95,382.6 713.48,392.27 716.5,397.5C719.52,402.73 724.25,411.95 727,418C729.75,424.05 733.8,434.4 736,441C738.2,447.6 740.9,457.27 742,462.5C743.1,467.73 744.45,475.6 746,488Z" style="fill:rgb(177,141,200);"/>
    </g>
    <g transform="matrix(1.999689,0,0,1.999689,-512.490855,-516.548111)">
        <path d="M317,333C317,333 317.68,334.57 318.5,336.5C319.32,338.43 321.35,341.12 323,342.5C324.65,343.88 328.48,346.8 331.5,349C334.52,351.2 340.15,355.02 344,357.5C347.85,359.98 353.7,363.35 357,365C360.3,366.65 367.27,369.8 372.5,372C377.73,374.2 388.98,377.8 397.5,380C406.02,382.2 414.35,384.45 416,385C417.77,385.59 441.11,386.2 527,387L408,387L407.5,396.5C407.23,401.73 407,437.5 407,546C403.9,544.45 397.82,540.62 391.5,536.5C385.18,532.38 380,529 380,529C380,529 379.55,510.32 379,487.5C378.45,464.68 377.77,445.1 377.5,444C377.23,442.9 376.1,438.4 375,434C373.9,429.6 371.65,422.62 370,418.5C368.35,414.38 364.75,406.95 362,402C359.25,397.05 354.3,389.4 351,385C347.7,380.6 341.18,372.95 336.5,368C331.82,363.05 325.3,356.98 316,350L317,333Z" style="fill:rgb(125,72,162);"/>
    </g>
    <g transform="matrix(1.999689,0,0,1.999689,-512.490855,-516.548111)">
        <path d="M316,369L327.5,380C335.96,388.09 340.72,393.64 345.5,401C349.07,406.5 353.8,415.05 356,420C358.2,424.95 361.12,433.27 365,448L365.5,527.5C365.77,571.23 366.23,607 366.5,607C366.77,607 375.32,607.45 404,609L384.5,634.5C373.77,648.52 359.82,666.52 353.5,674.5C347.18,682.48 341.55,689 341,689C340.45,689 337.3,685.62 334,681.5C330.7,677.38 321.25,665.23 313,654.5C304.75,643.77 293.5,629.15 288,622C282.5,614.85 278,608.77 278,608.5C278,608.23 286.1,608 296,608C306.67,608 314.41,607.59 315,607C315.66,606.34 316,565.17 316,369Z" style="fill:rgb(254,254,254);"/>
    </g>
    <g transform="matrix(1.999689,0,0,1.999689,-512.490855,-516.548111)">
        <path d="M541,582C521.17,582 510.42,581.17 502.5,580C495.07,578.9 489,578 489,578C489,578 489.23,548.52 489.5,512.5C489.98,449.54 490.08,446.84 492,443C493.1,440.8 495.57,437.65 497.5,436C499.43,434.35 502.35,432.32 504,431.5C505.65,430.68 509.25,429.77 512,429.5C514.75,429.23 518.8,429.45 521,430C523.2,430.55 527.02,432.57 529.5,434.5C532.03,436.46 535.32,440.41 540,449L541,582Z" style="fill:rgb(162,118,188);"/>
    </g>
    <g transform="matrix(1.999689,0,0,1.999689,-512.490855,-516.548111)">
        <path d="M746,488C746,488 746.23,497.9 746.5,510C746.86,525.97 746.59,535.57 745.5,545C744.67,552.15 742.65,563.4 741,570C739.35,576.6 736.42,586.5 734.5,592C732.58,597.5 728.52,607.17 725.5,613.5C722.48,619.83 717.75,628.83 715,633.5C712.25,638.17 706.62,646.5 702.5,652C698.38,657.5 690.73,666.5 685.5,672C680.27,677.5 672.17,685.15 667.5,689C662.83,692.85 654.05,699.38 648,703.5C641.95,707.62 631.38,713.7 624.5,717C617.62,720.3 607.73,724.58 602.5,726.5C597.27,728.42 586.92,731.58 579.5,733.5C572.08,735.42 560.38,737.67 553.5,738.5C542.97,739.76 527.6,739.92 456,739.5C402.89,739.19 370.06,738.62 366,737C362.9,733.12 361.55,729.98 361,727.5C360.24,724.09 360.36,721.55 361.5,717C362.61,712.57 365.49,707.2 372.5,696.5C377.73,688.52 385.15,677.95 389,673C392.85,668.05 398.48,659.95 401.5,655L407,646L420,646C473.48,646 489,645.77 489,645.5L489,578C489,578 495.07,578.9 502.5,580C510.42,581.17 521.17,582 541,582L541,612.5C541,632.17 541.36,643 542,643C542.55,643 545.7,642.33 549,641.5C552.3,640.67 555.23,639.77 555.5,639.5C555.77,639.23 556,638.55 556,637C557.55,638.55 558.23,639 558.5,639C558.77,639 561.48,638.1 564.5,637C567.52,635.9 573.6,633.2 578,631C582.4,628.8 588.7,625.2 592,623C595.3,620.8 599.8,617.42 602,615.5C604.2,613.58 606.45,611.33 607,610.5C607.55,609.67 608,609 608,609C608,609 610.7,606.3 614,603C617.3,599.7 622.48,593.17 625.5,588.5C628.52,583.83 632.35,577.3 634,574C635.65,570.7 638.12,564.4 639.5,560C640.88,555.6 642.9,548.62 646,537C646,537 647.12,536.1 648.5,535C649.88,533.9 655.05,528.5 660,523C664.95,517.5 672.15,510.52 676,507.5C679.85,504.48 686.38,499.98 690.5,497.5C694.62,495.02 702.05,491.65 707,490C712.69,488.1 718.94,486.82 724,486.5C728.4,486.23 735.15,486.45 746,488Z" style="fill:rgb(111,56,151);"/>
    </g>
    <g transform="matrix(1.999689,0,0,1.999689,-512.490855,-516.548111)">
        <path d="M474,573C471.68,573.77 464.93,571.98 457.5,569.5C450.07,567.02 439.05,562.75 433,560C426.95,557.25 422,555 422,555L422,537C422,523.67 422.39,517.83 423.5,514.5C424.32,512.02 426.35,508.43 428,506.5C429.65,504.57 433.48,501.88 436.5,500.5C440.41,498.72 443.73,498 448,498C451.3,498 455.57,498.68 457.5,499.5C459.43,500.32 462.57,502.12 464.5,503.5C466.65,505.04 468.96,508.12 470.5,511.5C472.93,516.84 473.01,517.8 474,573Z" style="fill:rgb(87,68,135);"/>
    </g>
    <g transform="matrix(1.999689,0,0,1.999689,-512.490855,-516.548111)">
        <path d="M608,569C604.9,570.55 598.6,572.58 592,574.5C585.4,576.42 575.05,578.9 569,580C562.95,581.1 557.55,581.77 557,581.5C556.45,581.23 556,581 556,581C556,581 556.23,566.15 556.5,548C556.96,517.58 557.16,514.69 559,511C560.1,508.8 562.58,505.65 564.5,504C566.42,502.35 569.58,500.32 571.5,499.5C573.42,498.68 577.92,498 581.5,498C586.3,498 589.44,498.65 593.5,500.5C597.04,502.11 600.07,504.43 602,507C603.65,509.2 605.45,512.35 606,514C606.55,515.65 607.23,528.7 608,569Z" style="fill:rgb(203,170,210);"/>
    </g>
    <g transform="matrix(1.999689,0,0,1.999689,-512.490855,-516.548111)">
        <path d="M380,529C380,529 385.18,532.38 391.5,536.5C397.82,540.62 403.9,544.45 407,546L407,593L393.5,593.5C386.07,593.77 380,593.77 380,593.5L380,529Z" style="fill:rgb(104,55,149);"/>
    </g>
    <g transform="matrix(1.999689,0,0,1.999689,-512.490855,-516.548111)">
        <path d="M422,555C422,555 426.95,557.25 433,560C439.05,562.75 450.07,567.02 457.5,569.5C464.93,571.98 471.68,573.77 474,573L474,609C474,628.8 474.23,645 474.5,645L489,645L489,645.5C489,645.77 473.48,646 420,646L420,645C420,645 420.45,644.77 421,644.5C421.64,644.18 422,628.17 422,555Z" style="fill:rgb(37,15,89);"/>
    </g>
    <g transform="matrix(1.999689,0,0,1.999689,-512.490855,-516.548111)">
        <path d="M608,569L608,609C608,609 607.55,609.67 607,610.5C606.45,611.33 604.2,613.58 602,615.5C599.8,617.42 595.3,620.8 592,623C588.7,625.2 582.4,628.8 578,631C573.6,633.2 567.52,635.9 564.5,637C561.48,638.1 558.77,639 558.5,639C558.23,639 557.55,638.55 556,637L556,581C556,581 556.45,581.23 557,581.5C557.55,581.77 562.95,581.1 569,580C575.05,578.9 585.4,576.42 592,574.5C598.6,572.58 604.9,570.55 608,569Z" style="fill:rgb(164,111,173);"/>
    </g>
    <g transform="matrix(1.999689,0,0,1.999689,-512.490855,-516.548111)">
        <path d="M420,645L420,646L407,646L401.5,655C398.48,659.95 392.85,668.05 389,673C385.15,677.95 377.73,688.52 372.5,696.5C365.49,707.2 362.61,712.57 361.5,717C360.36,721.55 360.24,724.09 361,727.5C361.55,729.98 362.9,733.12 366,737C366,737 363.3,735.65 360,734C354.12,731.06 353.96,730.87 352,724.5C350.87,720.83 350,715.17 350,711.5C350,705.88 350.47,704.19 353.5,699C355.43,695.7 367.8,678.6 381,661C394.2,643.4 405.68,629 406.5,629C407.71,629 408,630.56 408,637C408,641.4 408.23,645 408.5,645L420,645Z" style="fill:rgb(67,37,114);"/>
    </g>
</svg>
